<mxfile host="app.diagrams.net" modified="2023-10-30T13:04:23.713Z" agent="Mozilla/5.0 (Macintosh; Intel Mac OS X 10_15_7) AppleWebKit/605.1.15 (KHTML, like Gecko) Version/16.6 Safari/605.1.15" etag="Q9TcXca4B5nPxET4dSwA" version="22.0.8" type="device">
  <diagram name="Page-1" id="2YBvvXClWsGukQMizWep">
    <mxGraphModel dx="823" dy="474" grid="1" gridSize="10" guides="1" tooltips="1" connect="1" arrows="1" fold="1" page="1" pageScale="1" pageWidth="850" pageHeight="1100" math="0" shadow="0">
      <root>
        <mxCell id="0" />
        <mxCell id="1" parent="0" />
        <mxCell id="aM9ryv3xv72pqoxQDRHE-1" value="Controller" style="shape=umlLifeline;perimeter=lifelinePerimeter;whiteSpace=wrap;html=1;container=0;dropTarget=0;collapsible=0;recursiveResize=0;outlineConnect=0;portConstraint=eastwest;newEdgeStyle={&quot;edgeStyle&quot;:&quot;elbowEdgeStyle&quot;,&quot;elbow&quot;:&quot;vertical&quot;,&quot;curved&quot;:0,&quot;rounded&quot;:0};" parent="1" vertex="1">
          <mxGeometry x="40" y="40" width="100" height="760" as="geometry" />
        </mxCell>
        <mxCell id="aM9ryv3xv72pqoxQDRHE-2" value="" style="html=1;points=[];perimeter=orthogonalPerimeter;outlineConnect=0;targetShapes=umlLifeline;portConstraint=eastwest;newEdgeStyle={&quot;edgeStyle&quot;:&quot;elbowEdgeStyle&quot;,&quot;elbow&quot;:&quot;vertical&quot;,&quot;curved&quot;:0,&quot;rounded&quot;:0};" parent="aM9ryv3xv72pqoxQDRHE-1" vertex="1">
          <mxGeometry x="45" y="70" width="10" height="220" as="geometry" />
        </mxCell>
        <mxCell id="aM9ryv3xv72pqoxQDRHE-3" value="Sing-up" style="html=1;verticalAlign=bottom;startArrow=oval;endArrow=block;startSize=8;edgeStyle=elbowEdgeStyle;elbow=vertical;curved=0;rounded=0;" parent="aM9ryv3xv72pqoxQDRHE-1" target="aM9ryv3xv72pqoxQDRHE-2" edge="1">
          <mxGeometry relative="1" as="geometry">
            <mxPoint x="-15" y="70" as="sourcePoint" />
          </mxGeometry>
        </mxCell>
        <mxCell id="4unmLuzfEDArjYHm2cVm-31" value="" style="html=1;points=[[0,0,0,0,5],[0,1,0,0,-5],[1,0,0,0,5],[1,1,0,0,-5]];perimeter=orthogonalPerimeter;outlineConnect=0;targetShapes=umlLifeline;portConstraint=eastwest;newEdgeStyle={&quot;curved&quot;:0,&quot;rounded&quot;:0};" vertex="1" parent="aM9ryv3xv72pqoxQDRHE-1">
          <mxGeometry x="45" y="350" width="10" height="380" as="geometry" />
        </mxCell>
        <mxCell id="4unmLuzfEDArjYHm2cVm-32" value="Login" style="html=1;verticalAlign=bottom;startArrow=oval;endArrow=block;startSize=8;curved=0;rounded=0;entryX=0;entryY=0;entryDx=0;entryDy=5;" edge="1" target="4unmLuzfEDArjYHm2cVm-31" parent="aM9ryv3xv72pqoxQDRHE-1">
          <mxGeometry relative="1" as="geometry">
            <mxPoint x="-25" y="355" as="sourcePoint" />
          </mxGeometry>
        </mxCell>
        <mxCell id="aM9ryv3xv72pqoxQDRHE-5" value="Service" style="shape=umlLifeline;perimeter=lifelinePerimeter;whiteSpace=wrap;html=1;container=0;dropTarget=0;collapsible=0;recursiveResize=0;outlineConnect=0;portConstraint=eastwest;newEdgeStyle={&quot;edgeStyle&quot;:&quot;elbowEdgeStyle&quot;,&quot;elbow&quot;:&quot;vertical&quot;,&quot;curved&quot;:0,&quot;rounded&quot;:0};" parent="1" vertex="1">
          <mxGeometry x="220" y="40" width="100" height="760" as="geometry" />
        </mxCell>
        <mxCell id="aM9ryv3xv72pqoxQDRHE-6" value="" style="html=1;points=[];perimeter=orthogonalPerimeter;outlineConnect=0;targetShapes=umlLifeline;portConstraint=eastwest;newEdgeStyle={&quot;edgeStyle&quot;:&quot;elbowEdgeStyle&quot;,&quot;elbow&quot;:&quot;vertical&quot;,&quot;curved&quot;:0,&quot;rounded&quot;:0};" parent="aM9ryv3xv72pqoxQDRHE-5" vertex="1">
          <mxGeometry x="45" y="80" width="10" height="220" as="geometry" />
        </mxCell>
        <mxCell id="4unmLuzfEDArjYHm2cVm-33" value="" style="html=1;points=[[0,0,0,0,5],[0,1,0,0,-5],[1,0,0,0,5],[1,1,0,0,-5]];perimeter=orthogonalPerimeter;outlineConnect=0;targetShapes=umlLifeline;portConstraint=eastwest;newEdgeStyle={&quot;curved&quot;:0,&quot;rounded&quot;:0};" vertex="1" parent="aM9ryv3xv72pqoxQDRHE-5">
          <mxGeometry x="45" y="350" width="10" height="380" as="geometry" />
        </mxCell>
        <mxCell id="4unmLuzfEDArjYHm2cVm-49" value="" style="html=1;points=[[0,0,0,0,5],[0,1,0,0,-5],[1,0,0,0,5],[1,1,0,0,-5]];perimeter=orthogonalPerimeter;outlineConnect=0;targetShapes=umlLifeline;portConstraint=eastwest;newEdgeStyle={&quot;curved&quot;:0,&quot;rounded&quot;:0};" vertex="1" parent="aM9ryv3xv72pqoxQDRHE-5">
          <mxGeometry x="55" y="380" width="10" height="40" as="geometry" />
        </mxCell>
        <mxCell id="4unmLuzfEDArjYHm2cVm-50" value="Validate Token" style="html=1;align=left;spacingLeft=2;endArrow=block;rounded=0;edgeStyle=orthogonalEdgeStyle;curved=0;rounded=0;" edge="1" target="4unmLuzfEDArjYHm2cVm-49" parent="aM9ryv3xv72pqoxQDRHE-5">
          <mxGeometry relative="1" as="geometry">
            <mxPoint x="60" y="360" as="sourcePoint" />
            <Array as="points">
              <mxPoint x="90" y="390" />
            </Array>
          </mxGeometry>
        </mxCell>
        <mxCell id="aM9ryv3xv72pqoxQDRHE-7" value="Find Information" style="html=1;verticalAlign=bottom;endArrow=block;edgeStyle=elbowEdgeStyle;elbow=horizontal;curved=0;rounded=0;" parent="1" edge="1">
          <mxGeometry relative="1" as="geometry">
            <mxPoint x="95" y="127" as="sourcePoint" />
            <Array as="points">
              <mxPoint x="180" y="127" />
            </Array>
            <mxPoint x="265" y="127" as="targetPoint" />
            <mxPoint as="offset" />
          </mxGeometry>
        </mxCell>
        <mxCell id="aM9ryv3xv72pqoxQDRHE-8" value="return" style="html=1;verticalAlign=bottom;endArrow=open;dashed=1;endSize=8;edgeStyle=elbowEdgeStyle;elbow=vertical;curved=0;rounded=0;" parent="1" edge="1">
          <mxGeometry relative="1" as="geometry">
            <mxPoint x="95" y="307" as="targetPoint" />
            <Array as="points">
              <mxPoint x="190" y="307" />
            </Array>
            <mxPoint x="265" y="307" as="sourcePoint" />
          </mxGeometry>
        </mxCell>
        <mxCell id="4unmLuzfEDArjYHm2cVm-1" value="Repository" style="shape=umlLifeline;perimeter=lifelinePerimeter;whiteSpace=wrap;html=1;container=0;dropTarget=0;collapsible=0;recursiveResize=0;outlineConnect=0;portConstraint=eastwest;newEdgeStyle={&quot;edgeStyle&quot;:&quot;elbowEdgeStyle&quot;,&quot;elbow&quot;:&quot;vertical&quot;,&quot;curved&quot;:0,&quot;rounded&quot;:0};" vertex="1" parent="1">
          <mxGeometry x="390" y="40" width="100" height="760" as="geometry" />
        </mxCell>
        <mxCell id="4unmLuzfEDArjYHm2cVm-2" value="" style="html=1;points=[];perimeter=orthogonalPerimeter;outlineConnect=0;targetShapes=umlLifeline;portConstraint=eastwest;newEdgeStyle={&quot;edgeStyle&quot;:&quot;elbowEdgeStyle&quot;,&quot;elbow&quot;:&quot;vertical&quot;,&quot;curved&quot;:0,&quot;rounded&quot;:0};" vertex="1" parent="4unmLuzfEDArjYHm2cVm-1">
          <mxGeometry x="45" y="80" width="10" height="220" as="geometry" />
        </mxCell>
        <mxCell id="4unmLuzfEDArjYHm2cVm-41" value="" style="html=1;points=[[0,0,0,0,5],[0,1,0,0,-5],[1,0,0,0,5],[1,1,0,0,-5]];perimeter=orthogonalPerimeter;outlineConnect=0;targetShapes=umlLifeline;portConstraint=eastwest;newEdgeStyle={&quot;curved&quot;:0,&quot;rounded&quot;:0};" vertex="1" parent="4unmLuzfEDArjYHm2cVm-1">
          <mxGeometry x="45" y="350" width="10" height="380" as="geometry" />
        </mxCell>
        <mxCell id="4unmLuzfEDArjYHm2cVm-3" value="DB" style="shape=umlLifeline;perimeter=lifelinePerimeter;whiteSpace=wrap;html=1;container=0;dropTarget=0;collapsible=0;recursiveResize=0;outlineConnect=0;portConstraint=eastwest;newEdgeStyle={&quot;edgeStyle&quot;:&quot;elbowEdgeStyle&quot;,&quot;elbow&quot;:&quot;vertical&quot;,&quot;curved&quot;:0,&quot;rounded&quot;:0};" vertex="1" parent="1">
          <mxGeometry x="560" y="40" width="100" height="760" as="geometry" />
        </mxCell>
        <mxCell id="4unmLuzfEDArjYHm2cVm-4" value="" style="html=1;points=[];perimeter=orthogonalPerimeter;outlineConnect=0;targetShapes=umlLifeline;portConstraint=eastwest;newEdgeStyle={&quot;edgeStyle&quot;:&quot;elbowEdgeStyle&quot;,&quot;elbow&quot;:&quot;vertical&quot;,&quot;curved&quot;:0,&quot;rounded&quot;:0};" vertex="1" parent="4unmLuzfEDArjYHm2cVm-3">
          <mxGeometry x="45" y="80" width="10" height="220" as="geometry" />
        </mxCell>
        <mxCell id="4unmLuzfEDArjYHm2cVm-43" value="" style="html=1;points=[[0,0,0,0,5],[0,1,0,0,-5],[1,0,0,0,5],[1,1,0,0,-5]];perimeter=orthogonalPerimeter;outlineConnect=0;targetShapes=umlLifeline;portConstraint=eastwest;newEdgeStyle={&quot;curved&quot;:0,&quot;rounded&quot;:0};" vertex="1" parent="4unmLuzfEDArjYHm2cVm-3">
          <mxGeometry x="45" y="350" width="10" height="390" as="geometry" />
        </mxCell>
        <mxCell id="4unmLuzfEDArjYHm2cVm-17" style="edgeStyle=elbowEdgeStyle;rounded=0;orthogonalLoop=1;jettySize=auto;html=1;elbow=vertical;curved=0;" edge="1" parent="1" target="4unmLuzfEDArjYHm2cVm-2">
          <mxGeometry relative="1" as="geometry">
            <mxPoint x="275" y="140.00476190476192" as="sourcePoint" />
            <mxPoint x="420" y="140" as="targetPoint" />
          </mxGeometry>
        </mxCell>
        <mxCell id="4unmLuzfEDArjYHm2cVm-18" value="Find Information" style="edgeLabel;html=1;align=center;verticalAlign=middle;resizable=0;points=[];" vertex="1" connectable="0" parent="4unmLuzfEDArjYHm2cVm-17">
          <mxGeometry x="0.1322" relative="1" as="geometry">
            <mxPoint x="-18" y="-10" as="offset" />
          </mxGeometry>
        </mxCell>
        <mxCell id="4unmLuzfEDArjYHm2cVm-19" value="return" style="html=1;verticalAlign=bottom;endArrow=open;dashed=1;endSize=8;curved=0;rounded=0;" edge="1" parent="1" source="4unmLuzfEDArjYHm2cVm-2">
          <mxGeometry relative="1" as="geometry">
            <mxPoint x="410" y="179" as="sourcePoint" />
            <mxPoint x="275" y="179" as="targetPoint" />
            <Array as="points">
              <mxPoint x="350" y="179" />
            </Array>
          </mxGeometry>
        </mxCell>
        <mxCell id="4unmLuzfEDArjYHm2cVm-20" style="edgeStyle=elbowEdgeStyle;rounded=0;orthogonalLoop=1;jettySize=auto;html=1;elbow=vertical;curved=0;" edge="1" parent="1" target="4unmLuzfEDArjYHm2cVm-4">
          <mxGeometry relative="1" as="geometry">
            <mxPoint x="445" y="147.00476190476192" as="sourcePoint" />
            <mxPoint x="610" y="147" as="targetPoint" />
          </mxGeometry>
        </mxCell>
        <mxCell id="4unmLuzfEDArjYHm2cVm-21" value="return" style="html=1;verticalAlign=bottom;endArrow=open;dashed=1;endSize=8;curved=0;rounded=0;" edge="1" parent="1" target="4unmLuzfEDArjYHm2cVm-2">
          <mxGeometry relative="1" as="geometry">
            <mxPoint x="605" y="170" as="sourcePoint" />
            <mxPoint x="480" y="170" as="targetPoint" />
            <Array as="points">
              <mxPoint x="520" y="170" />
            </Array>
          </mxGeometry>
        </mxCell>
        <mxCell id="4unmLuzfEDArjYHm2cVm-22" value="Find Information By Email" style="text;html=1;align=center;verticalAlign=middle;resizable=0;points=[];autosize=1;strokeColor=none;fillColor=none;" vertex="1" parent="1">
          <mxGeometry x="440" y="118" width="160" height="30" as="geometry" />
        </mxCell>
        <mxCell id="4unmLuzfEDArjYHm2cVm-23" style="edgeStyle=elbowEdgeStyle;rounded=0;orthogonalLoop=1;jettySize=auto;html=1;elbow=vertical;curved=0;" edge="1" parent="1" target="4unmLuzfEDArjYHm2cVm-2">
          <mxGeometry relative="1" as="geometry">
            <mxPoint x="275.5" y="240.00476190476192" as="sourcePoint" />
            <mxPoint x="410" y="240" as="targetPoint" />
          </mxGeometry>
        </mxCell>
        <mxCell id="4unmLuzfEDArjYHm2cVm-24" value="Save Information" style="edgeLabel;html=1;align=center;verticalAlign=middle;resizable=0;points=[];" vertex="1" connectable="0" parent="4unmLuzfEDArjYHm2cVm-23">
          <mxGeometry x="-0.2842" y="1" relative="1" as="geometry">
            <mxPoint x="16" y="-9" as="offset" />
          </mxGeometry>
        </mxCell>
        <mxCell id="4unmLuzfEDArjYHm2cVm-25" style="edgeStyle=elbowEdgeStyle;rounded=0;orthogonalLoop=1;jettySize=auto;html=1;elbow=vertical;curved=0;" edge="1" parent="1">
          <mxGeometry relative="1" as="geometry">
            <mxPoint x="445" y="249.1379310344828" as="sourcePoint" />
            <mxPoint x="605" y="249.1379310344828" as="targetPoint" />
          </mxGeometry>
        </mxCell>
        <mxCell id="4unmLuzfEDArjYHm2cVm-26" value="Save in DB" style="edgeLabel;html=1;align=center;verticalAlign=middle;resizable=0;points=[];" vertex="1" connectable="0" parent="4unmLuzfEDArjYHm2cVm-25">
          <mxGeometry x="-0.1597" relative="1" as="geometry">
            <mxPoint x="1" y="-10" as="offset" />
          </mxGeometry>
        </mxCell>
        <mxCell id="4unmLuzfEDArjYHm2cVm-27" value="return" style="html=1;verticalAlign=bottom;endArrow=open;dashed=1;endSize=8;curved=0;rounded=0;" edge="1" parent="1">
          <mxGeometry relative="1" as="geometry">
            <mxPoint x="605" y="277" as="sourcePoint" />
            <mxPoint x="445" y="277" as="targetPoint" />
          </mxGeometry>
        </mxCell>
        <mxCell id="4unmLuzfEDArjYHm2cVm-28" value="return" style="html=1;verticalAlign=bottom;endArrow=open;dashed=1;endSize=8;curved=0;rounded=0;" edge="1" parent="1" source="4unmLuzfEDArjYHm2cVm-2">
          <mxGeometry relative="1" as="geometry">
            <mxPoint x="370" y="300" as="sourcePoint" />
            <mxPoint x="275.5" y="292" as="targetPoint" />
          </mxGeometry>
        </mxCell>
        <mxCell id="4unmLuzfEDArjYHm2cVm-34" value="" style="edgeStyle=orthogonalEdgeStyle;rounded=0;orthogonalLoop=1;jettySize=auto;html=1;curved=0;" edge="1" parent="1" source="4unmLuzfEDArjYHm2cVm-31" target="4unmLuzfEDArjYHm2cVm-33">
          <mxGeometry relative="1" as="geometry">
            <Array as="points">
              <mxPoint x="180" y="410" />
              <mxPoint x="180" y="410" />
            </Array>
          </mxGeometry>
        </mxCell>
        <mxCell id="4unmLuzfEDArjYHm2cVm-44" style="edgeStyle=orthogonalEdgeStyle;rounded=0;orthogonalLoop=1;jettySize=auto;html=1;curved=0;" edge="1" parent="1">
          <mxGeometry relative="1" as="geometry">
            <mxPoint x="445" y="496" as="sourcePoint" />
            <mxPoint x="605" y="496" as="targetPoint" />
            <Array as="points" />
          </mxGeometry>
        </mxCell>
        <mxCell id="4unmLuzfEDArjYHm2cVm-45" style="edgeStyle=orthogonalEdgeStyle;rounded=0;orthogonalLoop=1;jettySize=auto;html=1;curved=0;" edge="1" parent="1">
          <mxGeometry relative="1" as="geometry">
            <mxPoint x="275" y="480" as="sourcePoint" />
            <mxPoint x="435" y="480" as="targetPoint" />
          </mxGeometry>
        </mxCell>
        <mxCell id="4unmLuzfEDArjYHm2cVm-47" value="Find Information" style="text;html=1;align=center;verticalAlign=middle;resizable=0;points=[];autosize=1;strokeColor=none;fillColor=none;" vertex="1" parent="1">
          <mxGeometry x="300" y="451" width="110" height="30" as="geometry" />
        </mxCell>
        <mxCell id="4unmLuzfEDArjYHm2cVm-48" value="Find Information By Email" style="text;html=1;align=center;verticalAlign=middle;resizable=0;points=[];autosize=1;strokeColor=none;fillColor=none;" vertex="1" parent="1">
          <mxGeometry x="440" y="463" width="160" height="30" as="geometry" />
        </mxCell>
        <mxCell id="4unmLuzfEDArjYHm2cVm-52" value="return" style="html=1;verticalAlign=bottom;endArrow=open;dashed=1;endSize=8;curved=0;rounded=0;" edge="1" parent="1" target="4unmLuzfEDArjYHm2cVm-41">
          <mxGeometry relative="1" as="geometry">
            <mxPoint x="605.19" y="530" as="sourcePoint" />
            <mxPoint x="440.00034482758605" y="530" as="targetPoint" />
          </mxGeometry>
        </mxCell>
        <mxCell id="4unmLuzfEDArjYHm2cVm-53" value="return" style="html=1;verticalAlign=bottom;endArrow=open;dashed=1;endSize=8;curved=0;rounded=0;" edge="1" parent="1">
          <mxGeometry relative="1" as="geometry">
            <mxPoint x="435" y="547" as="sourcePoint" />
            <mxPoint x="275" y="547" as="targetPoint" />
            <Array as="points">
              <mxPoint x="310" y="547" />
            </Array>
          </mxGeometry>
        </mxCell>
        <mxCell id="4unmLuzfEDArjYHm2cVm-54" style="edgeStyle=orthogonalEdgeStyle;rounded=0;orthogonalLoop=1;jettySize=auto;html=1;curved=0;" edge="1" parent="1" source="4unmLuzfEDArjYHm2cVm-33" target="4unmLuzfEDArjYHm2cVm-41">
          <mxGeometry relative="1" as="geometry">
            <Array as="points">
              <mxPoint x="360" y="590" />
              <mxPoint x="360" y="590" />
            </Array>
          </mxGeometry>
        </mxCell>
        <mxCell id="4unmLuzfEDArjYHm2cVm-55" value="Save Login" style="edgeLabel;html=1;align=center;verticalAlign=middle;resizable=0;points=[];" vertex="1" connectable="0" parent="4unmLuzfEDArjYHm2cVm-54">
          <mxGeometry x="-0.0353" y="2" relative="1" as="geometry">
            <mxPoint x="3" y="-8" as="offset" />
          </mxGeometry>
        </mxCell>
        <mxCell id="4unmLuzfEDArjYHm2cVm-56" style="edgeStyle=orthogonalEdgeStyle;rounded=0;orthogonalLoop=1;jettySize=auto;html=1;curved=0;" edge="1" parent="1">
          <mxGeometry relative="1" as="geometry">
            <mxPoint x="445" y="605" as="sourcePoint" />
            <mxPoint x="605" y="605" as="targetPoint" />
          </mxGeometry>
        </mxCell>
        <mxCell id="4unmLuzfEDArjYHm2cVm-57" value="Save Last Login" style="edgeLabel;html=1;align=center;verticalAlign=middle;resizable=0;points=[];" vertex="1" connectable="0" parent="4unmLuzfEDArjYHm2cVm-56">
          <mxGeometry x="-0.169" relative="1" as="geometry">
            <mxPoint x="9" y="-15" as="offset" />
          </mxGeometry>
        </mxCell>
        <mxCell id="4unmLuzfEDArjYHm2cVm-58" value="return" style="html=1;verticalAlign=bottom;endArrow=open;dashed=1;endSize=8;curved=0;rounded=0;" edge="1" parent="1">
          <mxGeometry relative="1" as="geometry">
            <mxPoint x="605" y="629" as="sourcePoint" />
            <mxPoint x="445" y="629" as="targetPoint" />
          </mxGeometry>
        </mxCell>
        <mxCell id="4unmLuzfEDArjYHm2cVm-59" value="return" style="html=1;verticalAlign=bottom;endArrow=open;dashed=1;endSize=8;curved=0;rounded=0;" edge="1" parent="1">
          <mxGeometry relative="1" as="geometry">
            <mxPoint x="435" y="647" as="sourcePoint" />
            <mxPoint x="275" y="647" as="targetPoint" />
          </mxGeometry>
        </mxCell>
        <mxCell id="4unmLuzfEDArjYHm2cVm-60" value="return" style="html=1;verticalAlign=bottom;endArrow=open;dashed=1;endSize=8;curved=0;rounded=0;" edge="1" parent="1">
          <mxGeometry relative="1" as="geometry">
            <mxPoint x="265" y="683" as="sourcePoint" />
            <mxPoint x="95" y="683" as="targetPoint" />
          </mxGeometry>
        </mxCell>
      </root>
    </mxGraphModel>
  </diagram>
</mxfile>
